# xmcd
#
# Track frame offsets: 
#        150
#        18426
#        38553
#        60129
#        78566
#        98171
#        125662
#        146481
#        162918
#        184762
#        213045
#
# Disc length: 3157 seconds
#
# Revision: 0
# Processed by: cddbd v1.5.2PL0 Copyright (c) Steve Scherf et al.
# Submitted via: ExactAudioCopy v1.0b1
#
DISCID=860c530b
DTITLE=安藤裕子 - あなたが寝てる間に
DYEAR=2015
DGENRE=JPop
TTITLE0=森のくまさん
TTITLE1=Live And Let Die
TTITLE2=大人計画
TTITLE3=RARA-RO
TTITLE4=クリスマスの恋人
TTITLE5=世界をかえるつもりはない (BAND ver.)
TTITLE6=レガート
TTITLE7=人魚姫
TTITLE8=You
TTITLE9=73%の恋人
TTITLE10=都会の空を烏が舞う
EXTD=
EXTT0=
EXTT1=
EXTT2=
EXTT3=
EXTT4=
EXTT5=
EXTT6=
EXTT7=
EXTT8=
EXTT9=
EXTT10=
PLAYORDER=
